<?xml version="1.0" encoding="utf-8"?>
<!-- Generator: Adobe Illustrator 23.0.3, SVG Export Plug-In . SVG Version: 6.00 Build 0)  -->
<svg version="1.1" id="Layer_1" xmlns="http://www.w3.org/2000/svg" xmlns:xlink="http://www.w3.org/1999/xlink" x="0px" y="0px"
	 viewBox="0 0 1012.9 354" style="enable-background:new 0 0 1012.9 354;" xml:space="preserve">
<style type="text/css">
	.st0{fill:#ED4242;}
	.st1{fill-rule:evenodd;clip-rule:evenodd;fill:#FFFFFF;}
	.st2{fill:#1877F2;}
	.st3{fill:#FFFFFF;}
</style>
<title>FBLive_Hex-RGB-1024</title>
<g>
	<path id="Blue_1_" class="st0" d="M993.4,353.6c10.8,0,19.5-8.7,19.5-19.5V19.5c0-10.8-8.7-19.5-19.5-19.5H400
		c-10.8,0-19.5,8.7-19.5,19.5V334c0,10.8,8.7,19.5,19.5,19.5H993.4z"/>
	<path class="st1" d="M913.9,228.5h-70.1v-41.9h66.3v-21.8h-66.3v-39.7h70.1v-23.1H817v149.7h96.9V228.5z M739.4,251.6l51.8-149.7
		h-28.5l-37.4,118.5h-1.8l-37.7-118.5h-29.6l52.3,149.7H739.4z M630.5,251.6V101.9h-26.8v149.7H630.5z M574.9,228.2h-68.7V101.9
		h-26.8v149.7h95.5V228.2z"/>
	<g>
		<path class="st2" d="M353.7,177.1c0-97.7-79.2-176.8-176.8-176.8S0,79.4,0,177.1c0,88.3,64.7,161.5,149.3,174.7V228.2h-45.2v-51.1
			h45.2l0-39c0-44.3,26.2-68.9,66.6-68.9c19.3,0,39.4,3.7,39.4,3.7v43.2h-22.1c-22,0-29,13.8-29,27.7l0,33.2h49.1l-7.9,51.1h-41.3
			v123.6C288.9,338.6,353.7,265.4,353.7,177.1z"/>
		<path class="st3" d="M245.6,228.2l7.9-51.1h-49.1l0-33.2c0-14,7-27.7,29-27.7h22.1V72.9c0,0-20.1-3.7-39.4-3.7
			c-40.4,0-66.6,24.6-66.6,68.9l0,39h-45.2v51.1h45.2v123.6c9,1.4,18.2,2.1,27.5,2.1c9.4,0,18.5-0.7,27.5-2.1V228.2H245.6z"/>
	</g>
</g>
</svg>
