<?xml version="1.0" encoding="UTF-8" standalone="no"?><!DOCTYPE svg PUBLIC "-//W3C//DTD SVG 1.1//EN" "http://www.w3.org/Graphics/SVG/1.1/DTD/svg11.dtd"><svg width="100%" height="100%" viewBox="0 0 1012 354" version="1.1" xmlns="http://www.w3.org/2000/svg" xmlns:xlink="http://www.w3.org/1999/xlink" xml:space="preserve" xmlns:serif="http://www.serif.com/" style="fill-rule:evenodd;clip-rule:evenodd;stroke-linejoin:round;stroke-miterlimit:2;"><g><path id="Blue_1_" d="M993.4,353.6c10.8,0 19.5,-8.7 19.5,-19.5l0,-314.6c0,-10.8 -8.7,-19.5 -19.5,-19.5l-593.4,0c-10.8,0 -19.5,8.7 -19.5,19.5l0,314.5c0,10.8 8.7,19.5 19.5,19.5l593.4,0l0,0.1Z" style="fill:#fcda1e;fill-rule:nonzero;"/><path d="M913.9,228.5l-70.1,0l0,-41.9l66.3,0l0,-21.8l-66.3,0l0,-39.7l70.1,0l0,-23.1l-96.9,0l0,149.7l96.9,0l0,-23.2Zm-174.5,23.1l51.8,-149.7l-28.5,0l-37.4,118.5l-1.8,0l-37.7,-118.5l-29.6,0l52.3,149.7l30.9,0Zm-108.9,0l0,-149.7l-26.8,0l0,149.7l26.8,0Zm-55.6,-23.4l-68.7,0l0,-126.3l-26.8,0l0,149.7l95.5,0l0,-23.4Z" style="fill:#fff;"/><g><path d="M353.7,177.1c0,-97.7 -79.2,-176.8 -176.8,-176.8c-97.6,0 -176.9,79.1 -176.9,176.8c0,88.3 64.7,161.5 149.3,174.7l0,-123.6l-45.2,0l0,-51.1l45.2,0l0,-39c0,-44.3 26.2,-68.9 66.6,-68.9c19.3,0 39.4,3.7 39.4,3.7l0,43.2l-22.1,0c-22,0 -29,13.8 -29,27.7l0,33.2l49.1,0l-7.9,51.1l-41.3,0l0,123.6c84.8,-13.1 149.6,-86.3 149.6,-174.6Z" style="fill-rule:nonzero;"/><path d="M245.6,228.2l7.9,-51.1l-49.1,0l0,-33.2c0,-14 7,-27.7 29,-27.7l22.1,0l0,-43.3c0,0 -20.1,-3.7 -39.4,-3.7c-40.4,0 -66.6,24.6 -66.6,68.9l0,39l-45.2,0l0,51.1l45.2,0l0,123.6c9,1.4 18.2,2.1 27.5,2.1c9.4,0 18.5,-0.7 27.5,-2.1l0,-123.6l41.1,0Z" style="fill:#fff;fill-rule:nonzero;"/></g></g></svg>