<?xml version="1.0" encoding="UTF-8" standalone="no"?><!DOCTYPE svg PUBLIC "-//W3C//DTD SVG 1.1//EN" "http://www.w3.org/Graphics/SVG/1.1/DTD/svg11.dtd"><svg width="100%" height="100%" viewBox="0 0 359 159" version="1.1" xmlns="http://www.w3.org/2000/svg" xmlns:xlink="http://www.w3.org/1999/xlink" xml:space="preserve" xmlns:serif="http://www.serif.com/" style="fill-rule:evenodd;clip-rule:evenodd;stroke-linejoin:round;stroke-miterlimit:2;"><g><g><rect x="77.204" y="0.779" width="2.927" height="71.135" style="fill:#fac8a2;"/><path d="M78.668,155.937c-42.995,-0 -77.973,-34.98 -77.973,-77.974c-0,-42.997 34.978,-77.975 77.973,-77.975c42.996,0 77.976,34.978 77.976,77.975c-0,42.994 -34.98,77.974 -77.976,77.974m0,-152.859c-41.29,-0 -74.884,33.595 -74.884,74.885c0,41.291 33.594,74.884 74.884,74.884c41.291,0 74.887,-33.593 74.887,-74.884c-0,-41.29 -33.596,-74.885 -74.887,-74.885" style="fill:#fac8a2;fill-rule:nonzero;"/><path d="M103.732,28.391l-25.043,66.968l-25.043,-66.968l-3.171,0l26.627,71.136l3.174,-0l26.586,-71.136l-3.13,0Z" style="fill:#fac8a2;fill-rule:nonzero;"/><path d="M98.387,83.242l-19.719,43.903l-19.719,-43.903l-3.194,0l21.449,47.77l-0,23.365l2.929,-0l0,-23.334l21.456,-47.801l-3.202,0Z" style="fill:#fac8a2;fill-rule:nonzero;"/></g><g transform="matrix(1.71537,0,0,1.71537,-722.744,-1181.78)"><text x="531.204px" y="730.297px" style="font-family:'BasisGrotesquePro-Bold', 'Basis Grotesque Pro';font-weight:700;font-size:24px;fill:#fac8a2;">I <tspan x="547.476px " y="730.297px ">V</tspan></text><text x="574.068px" y="730.297px" style="font-family:'BasisGrotesquePro-Bold', 'Basis Grotesque Pro';font-weight:700;font-size:24px;fill:#fac8a2;">Y</text></g><g transform="matrix(1.71537,0,0,1.71537,-722.744,-1181.78)"><text x="531.204px" y="754.945px" style="font-family:'BasisGrotesquePro-Bold', 'Basis Grotesque Pro';font-weight:700;font-size:24px;fill:#252525;">Y</text><text x="554.124px" y="754.945px" style="font-family:'BasisGrotesquePro-Bold', 'Basis Grotesque Pro';font-weight:700;font-size:24px;fill:#252525;">O <tspan x="583.212px 601.932px 611.532px " y="754.945px 754.945px 754.945px ">G A</tspan></text></g></g></svg>