<?xml version="1.0" encoding="UTF-8" standalone="no"?><!DOCTYPE svg PUBLIC "-//W3C//DTD SVG 1.1//EN" "http://www.w3.org/Graphics/SVG/1.1/DTD/svg11.dtd"><svg width="100%" height="100%" viewBox="0 0 14066 14066" version="1.1" xmlns="http://www.w3.org/2000/svg" xmlns:xlink="http://www.w3.org/1999/xlink" xml:space="preserve" xmlns:serif="http://www.serif.com/" style="fill-rule:evenodd;clip-rule:evenodd;stroke-linejoin:round;stroke-miterlimit:2;"><rect id="logo" x="0.391" y="0.756" width="14062.5" height="14062.5" style="fill:#fff;"/><g><g><rect x="3755.96" y="4433" width="98.576" height="2395.32" style="fill:#fac8a2;"/><path d="M3805.29,9657.64c-1447.8,0 -2625.61,-1177.89 -2625.61,-2625.61c-0,-1447.84 1177.82,-2625.65 2625.61,-2625.65c1447.8,0 2625.67,1177.82 2625.67,2625.65c0,1447.72 -1177.88,2625.61 -2625.67,2625.61m0,-5147.23c-1390.38,-0 -2521.58,1131.26 -2521.58,2521.62c-0,1390.39 1131.2,2521.57 2521.58,2521.57c1390.38,0 2521.64,-1131.18 2521.64,-2521.57c-0,-1390.36 -1131.26,-2521.62 -2521.64,-2521.62" style="fill:#fac8a2;fill-rule:nonzero;"/><path d="M4649.24,5362.79l-843.262,2255l-843.262,-2255l-106.801,-0l896.634,2395.34l106.859,-0l895.247,-2395.34l-105.415,-0Z" style="fill:#fac8a2;fill-rule:nonzero;"/><path d="M4469.26,7209.79l-663.97,1478.34l-664.027,-1478.34l-107.553,0l722.252,1608.56l-0,786.76l98.657,-0l-0,-785.726l722.482,-1609.6l-107.841,0Z" style="fill:#fac8a2;fill-rule:nonzero;"/></g><g transform="matrix(57.7616,0,0,57.7616,-23180.7,-35387.5)"><text x="531.204px" y="730.297px" style="font-family:'BasisGrotesquePro-Bold', 'Basis Grotesque Pro';font-weight:700;font-size:24px;fill:#fac8a2;">I <tspan x="547.476px " y="730.297px ">V</tspan></text><text x="574.068px" y="730.297px" style="font-family:'BasisGrotesquePro-Bold', 'Basis Grotesque Pro';font-weight:700;font-size:24px;fill:#fac8a2;">Y</text></g><g transform="matrix(57.7616,0,0,57.7616,-23405.7,-35387.5)"><text x="531.204px" y="754.945px" style="font-family:'BasisGrotesquePro-Bold', 'Basis Grotesque Pro';font-weight:700;font-size:24px;fill:#252525;">Y</text><text x="554.124px" y="754.945px" style="font-family:'BasisGrotesquePro-Bold', 'Basis Grotesque Pro';font-weight:700;font-size:24px;fill:#252525;">O <tspan x="583.212px 601.932px 611.532px " y="754.945px 754.945px 754.945px ">G A</tspan></text></g></g></svg>