<?xml version="1.0" encoding="UTF-8" standalone="no"?><!DOCTYPE svg PUBLIC "-//W3C//DTD SVG 1.1//EN" "http://www.w3.org/Graphics/SVG/1.1/DTD/svg11.dtd"><svg width="100%" height="100%" viewBox="0 0 921 313" version="1.1" xmlns="http://www.w3.org/2000/svg" xmlns:xlink="http://www.w3.org/1999/xlink" xml:space="preserve" xmlns:serif="http://www.serif.com/" style="fill-rule:evenodd;clip-rule:evenodd;stroke-linejoin:round;stroke-miterlimit:2;"><g><path d="M49.353,295.781l12.293,0l0,-279.173l-12.293,0l0,279.173Zm-24.587,0l12.293,0l0,-279.173l-12.293,0l0,279.173Zm-24.585,0l12.293,0l0,-279.173l-12.293,0l0,279.173Zm345.868,0l13.317,0l111.657,-279.173l-13.147,0l-105.168,262.82l-105.169,-262.82l-13.317,0l111.827,279.173Zm-72.219,-279.173l-13.144,0l93.557,233.993l7,-15.509l-87.413,-218.484Zm26.635,0l-13.317,0l80.754,201.962l6.488,-16.69l-73.925,-185.272Zm98.51,279.173l13.146,0l111.828,-279.173l-13.147,0l-111.827,279.173Zm-26.462,0l13.144,0l111.828,-279.173l-13.316,0l-111.656,279.173Zm344.981,-279.173l-12.292,0l73.754,152.062l6.146,-13.317l-67.608,-138.745Zm24.585,0l-12.293,0l61.291,125.425l6.317,-13.318l-55.315,-112.107Zm52.071,279.173l12.293,0l0,-94.069l88.951,-185.104l-12.295,0l-88.949,185.104l0,94.069Zm24.585,0l12.292,0l0,-94.069l88.952,-185.104l-12.293,0l-88.951,185.104l0,94.069Zm-125.826,-279.173l-12.292,0l88.949,185.104l0,94.069l12.292,0l0,-94.069l88.949,-185.104l-12.293,0l-82.802,172.291l-82.803,-172.291Z" style="fill:#fcda1e;fill-rule:nonzero;"/><rect x="195.958" y="1.773" width="5.856" height="142.323"/><path d="M198.885,312.202c-86.024,0 -156.007,-69.983 -156.007,-156.005c0,-86.024 69.983,-156.009 156.007,-156.009c86.024,0 156.007,69.985 156.007,156.009c0,86.022 -69.983,156.005 -156.007,156.005m0,-305.831c-82.615,0 -149.824,67.212 -149.824,149.826c0,82.61 67.209,149.821 149.824,149.821c82.612,0 149.826,-67.211 149.826,-149.821c0,-82.614 -67.214,-149.826 -149.826,-149.826" style="fill-rule:nonzero;"/><path d="M249.03,57.017l-50.105,133.985l-50.103,-133.985l-6.347,0l53.278,142.323l6.347,0l53.195,-142.323l-6.265,0Z" style="fill-rule:nonzero;"/><path d="M238.336,166.759l-39.453,87.837l-39.45,-87.837l-6.391,0l42.914,95.578l0,46.745l5.859,0l0,-46.686l42.929,-95.637l-6.408,0Z" style="fill-rule:nonzero;"/><path d="M424.303,224.598c1.263,-1.993 2.246,-4.479 2.949,-7.458l-2.739,-1.516c-0.45,2.472 -1.166,4.606 -2.149,6.404l-6.783,-8.974c0.87,-0.448 1.551,-0.815 2.043,-1.097c0.491,-0.28 1.09,-0.679 1.791,-1.201c0.703,-0.518 1.243,-1.018 1.622,-1.496c0.379,-0.475 0.71,-1.067 0.99,-1.768c0.28,-0.703 0.421,-1.446 0.421,-2.234c0,-1.797 -0.589,-3.224 -1.768,-4.276c-1.181,-1.053 -2.768,-1.58 -4.762,-1.58c-1.882,0 -3.491,0.639 -4.824,1.917c-1.334,1.277 -2.003,2.872 -2.003,4.781c0,2.222 0.688,4.284 2.065,6.196c-3.848,2.33 -5.772,5.307 -5.772,8.932c0,2.528 0.864,4.633 2.593,6.32c1.726,1.686 3.952,2.528 6.676,2.528c3.063,0 5.618,-1.025 7.669,-3.076l1.897,2.487l3.791,0l-3.707,-4.889Zm-13.736,0.926c-1.209,-1.067 -1.813,-2.486 -1.813,-4.254c0,-2.585 1.377,-4.819 4.131,-6.701l7.627,10.029c-1.63,1.687 -3.512,2.529 -5.646,2.529c-1.659,0 -3.091,-0.533 -4.299,-1.603m2.674,-22.247c0.689,-0.73 1.583,-1.094 2.677,-1.094c0.954,0 1.776,0.302 2.464,0.906c0.688,0.604 1.033,1.397 1.033,2.38c0,1.067 -0.379,1.981 -1.137,2.739c-0.758,0.757 -2.219,1.644 -4.383,2.654c-1.124,-1.518 -1.684,-3.117 -1.684,-4.804c0,-1.121 0.342,-2.05 1.03,-2.781m84.187,22.186c-1.56,0.998 -3.449,1.495 -5.668,1.495c-3.145,0 -5.708,-1.159 -7.689,-3.476c-1.981,-2.318 -2.972,-5.23 -2.972,-8.744c0,-3.455 1.033,-6.354 3.098,-8.7c2.065,-2.345 4.599,-3.518 7.605,-3.518c4.41,0 7.627,2.134 9.65,6.403l2.739,-1.936c-1.04,-2.333 -2.635,-4.18 -4.784,-5.542c-2.147,-1.362 -4.656,-2.043 -7.521,-2.043c-3.989,0 -7.387,1.468 -10.195,4.403c-2.81,2.934 -4.214,6.579 -4.214,10.933c0,4.41 1.347,8.07 4.043,10.977c2.697,2.907 6.082,4.361 10.156,4.361c5.646,0 9.803,-2.514 12.473,-7.543l-2.655,-1.936c-1.154,2.246 -2.508,3.868 -4.066,4.866m42.028,-26.061c-4.044,0 -7.429,1.426 -10.153,4.277c-2.726,2.85 -4.088,6.537 -4.088,11.059c0,4.524 1.362,8.211 4.088,11.061c2.724,2.851 6.109,4.277 10.153,4.277c4.046,0 7.431,-1.426 10.155,-4.277c2.724,-2.85 4.086,-6.537 4.086,-11.061c0,-4.522 -1.362,-8.209 -4.086,-11.059c-2.724,-2.851 -6.109,-4.277 -10.155,-4.277m-10.619,15.336c0,-3.623 1.006,-6.565 3.014,-8.826c2.008,-2.261 4.544,-3.392 7.605,-3.392c3.061,0 5.596,1.131 7.607,3.392c2.006,2.261 3.011,5.203 3.011,8.826c0,3.625 -1.005,6.567 -3.011,8.828c-2.011,2.261 -4.546,3.392 -7.607,3.392c-3.061,0 -5.597,-1.131 -7.605,-3.392c-2.008,-2.261 -3.014,-5.203 -3.014,-8.828m50.606,14.749l0,-22.753c0.169,0.505 0.674,1.882 1.516,4.128l7.711,18.625l3.625,0l7.709,-18.625l1.518,-4.128l0,22.753l3.37,0l0,-29.496l-3.791,0l-10.619,26.546l-10.618,-26.546l-3.791,0l0,29.496l3.37,0Zm52.669,0l0,-22.753c0.168,0.505 0.673,1.882 1.515,4.128l7.711,18.625l3.623,0l7.711,-18.625l1.518,-4.128l0,22.753l3.371,0l0,-29.496l-3.792,0l-10.618,26.546l-10.618,-26.546l-3.792,0l0,29.496l3.371,0Zm67.12,-29.496l0,19.803c0,2.051 -0.647,3.759 -1.939,5.121c-1.29,1.362 -3.103,2.043 -5.436,2.043c-2.33,0 -4.143,-0.681 -5.435,-2.043c-1.29,-1.362 -1.937,-3.07 -1.937,-5.121l0,-19.803l-3.541,0l0,19.593c0,3.259 1.006,5.822 3.014,7.689c2.008,1.869 4.64,2.803 7.899,2.803c3.259,0 5.894,-0.934 7.902,-2.803c2.008,-1.867 3.011,-4.43 3.011,-7.689l0,-19.593l-3.538,0Zm30.295,29.496l0,-24.523c0.168,0.421 0.589,1.193 1.265,2.318l14.031,22.205l3.749,0l0,-29.496l-3.37,0l0,24.523c-0.169,-0.421 -0.59,-1.193 -1.266,-2.318l-14.03,-22.205l-3.749,0l0,29.496l3.37,0Zm43.021,0l3.412,-8.722l13.062,0l3.413,8.722l3.625,0l-11.715,-29.496l-3.707,0l-11.713,29.496l3.623,0Zm9.944,-25.576c0.196,0.617 0.491,1.432 0.884,2.442l4.468,11.463l-10.745,0l4.507,-11.463l0.886,-2.442Zm51.235,-3.92l0,19.803c0,2.051 -0.646,3.759 -1.939,5.121c-1.29,1.362 -3.103,2.043 -5.433,2.043c-2.333,0 -4.145,-0.681 -5.435,-2.043c-1.293,-1.362 -1.939,-3.07 -1.939,-5.121l0,-19.803l-3.539,0l0,19.593c0,3.259 1.003,5.822 3.011,7.689c2.008,1.869 4.641,2.803 7.902,2.803c3.256,0 5.891,-0.934 7.899,-2.803c2.009,-1.867 3.014,-4.43 3.014,-7.689l0,-19.593l-3.541,0Zm33.581,3.118l0,26.378l3.541,0l0,-26.378l9.185,0l0,-3.118l-21.91,0l0,3.118l9.184,0Zm52.669,26.378l0,-3.118l-15.042,0l0,-10.576l13.737,0l0,-3.118l-13.737,0l0,-9.566l14.915,0l0,-3.118l-18.453,0l0,29.496l18.58,0Zm-8.722,-32.277l4.215,-5.814l-4.51,0l-2.696,5.814l2.991,0Z" style="fill-rule:nonzero;"/><path d="M630.298,164.515l-15.167,0l0,2.613l15.167,0l0,-2.613Zm51.235,14.41l3.412,-8.722l13.063,0l3.412,8.722l3.626,0l-11.713,-29.496l-3.71,0l-11.713,29.496l3.623,0Zm9.945,-25.576c0.196,0.617 0.49,1.432 0.884,2.442l4.467,11.463l-10.744,0l4.509,-11.463l0.884,-2.442Zm55.323,25.576l-7.374,-13.021c2.218,-0.448 3.974,-1.404 5.267,-2.865c1.292,-1.461 1.939,-3.216 1.939,-5.267c0,-2.414 -0.865,-4.41 -2.591,-5.983c-1.728,-1.572 -4.024,-2.36 -6.891,-2.36l-11.755,0l0,29.496l3.541,0l0,-12.81l6.656,0l7.248,12.81l3.96,0Zm-10.282,-26.378c2.108,0 3.73,0.451 4.869,1.35c1.136,0.899 1.706,2.189 1.706,3.875c0,1.686 -0.57,2.979 -1.706,3.878c-1.139,0.899 -2.761,1.347 -4.869,1.347l-7.582,0l0,-10.45l7.582,0Zm38.68,0l0,26.378l3.541,0l0,-26.378l9.185,0l0,-3.118l-21.91,0l0,3.118l9.184,0Zm38.871,0.547c1.193,-0.812 2.731,-1.22 4.613,-1.22c1.882,0 3.499,0.497 4.846,1.495c1.35,0.998 2.333,2.41 2.949,4.235l2.865,-1.687c-0.757,-2.161 -2.077,-3.882 -3.959,-5.16c-1.882,-1.278 -4.116,-1.917 -6.701,-1.917c-2.865,0 -5.223,0.716 -7.077,2.15c-1.855,1.431 -2.781,3.271 -2.781,5.519c0,4.495 3.229,7.318 9.69,8.469c2.639,0.478 4.601,1.179 5.878,2.105c1.278,0.929 1.917,2.221 1.917,3.878c0,1.515 -0.639,2.801 -1.917,3.856c-1.277,1.052 -3.013,1.579 -5.202,1.579c-2.333,0 -4.257,-0.646 -5.775,-1.939c-1.516,-1.29 -2.471,-3.201 -2.865,-5.73l-3.118,1.645c0.478,2.639 1.748,4.823 3.814,6.552c2.065,1.726 4.712,2.59 7.944,2.59c3.145,0 5.707,-0.842 7.689,-2.528c1.981,-1.687 2.969,-3.777 2.969,-6.278c0,-4.551 -3.175,-7.416 -9.522,-8.595c-2.753,-0.505 -4.781,-1.208 -6.089,-2.107c-1.305,-0.899 -1.959,-2.065 -1.959,-3.497c0,-1.461 0.597,-2.597 1.791,-3.415" style="fill-rule:nonzero;"/><path d="M425.103,128.362l0,-3.117l-15.041,0l0,-10.577l13.736,0l0,-3.117l-13.736,0l0,-9.566l14.915,0l0,-3.118l-18.456,0l0,29.495l18.582,0Zm27.198,-25.827c1.193,-0.815 2.731,-1.224 4.613,-1.224c1.882,0 3.499,0.5 4.846,1.496c1.35,0.998 2.333,2.409 2.949,4.234l2.866,-1.683c-0.758,-2.165 -2.078,-3.883 -3.96,-5.164c-1.882,-1.277 -4.116,-1.916 -6.701,-1.916c-2.865,0 -5.222,0.715 -7.077,2.149c-1.855,1.432 -2.781,3.271 -2.781,5.52c0,4.494 3.229,7.317 9.69,8.469c2.642,0.478 4.601,1.179 5.878,2.107c1.278,0.926 1.917,2.219 1.917,3.876c0,1.518 -0.639,2.803 -1.917,3.855c-1.277,1.053 -3.013,1.58 -5.202,1.58c-2.333,0 -4.257,-0.646 -5.773,-1.939c-1.518,-1.29 -2.473,-3.202 -2.865,-5.73l-3.12,1.644c0.478,2.64 1.751,4.824 3.814,6.553c2.065,1.725 4.712,2.59 7.944,2.59c3.145,0 5.708,-0.842 7.689,-2.529c1.981,-1.683 2.969,-3.776 2.969,-6.277c0,-4.551 -3.172,-7.417 -9.522,-8.595c-2.753,-0.505 -4.781,-1.209 -6.089,-2.108c-1.305,-0.898 -1.959,-2.065 -1.959,-3.496c0,-1.461 0.597,-2.598 1.791,-3.412m41.988,25.827l0,-11.123l8.848,0c3.117,0 5.596,-0.835 7.436,-2.506c1.84,-1.672 2.761,-3.898 2.761,-6.679c0,-2.781 -0.921,-5.007 -2.761,-6.678c-1.84,-1.672 -4.319,-2.509 -7.436,-2.509l-12.387,0l0,29.495l3.539,0Zm8.679,-26.377c2.162,0 3.841,0.515 5.035,1.538c1.193,1.027 1.792,2.535 1.792,4.531c0,1.994 -0.599,3.504 -1.792,4.529c-1.194,1.026 -2.873,1.538 -5.035,1.538l-8.679,0l0,-12.136l8.679,0Zm29.201,26.377l3.412,-8.721l13.063,0l3.412,8.721l3.623,0l-11.713,-29.495l-3.71,0l-11.712,29.495l3.625,0Zm9.942,-25.575c0.196,0.617 0.49,1.431 0.884,2.444l4.467,11.461l-10.744,0l4.509,-11.461l0.884,-2.444Zm51.51,21.551c-1.558,0.998 -3.447,1.496 -5.666,1.496c-3.147,0 -5.71,-1.159 -7.689,-3.477c-1.981,-2.317 -2.972,-5.23 -2.972,-8.741c0,-3.457 1.033,-6.357 3.098,-8.702c2.063,-2.345 4.599,-3.519 7.605,-3.519c4.41,0 7.627,2.135 9.648,6.407l2.738,-1.939c-1.037,-2.333 -2.632,-4.178 -4.781,-5.542c-2.15,-1.362 -4.656,-2.043 -7.521,-2.043c-3.989,0 -7.389,1.468 -10.197,4.403c-2.808,2.937 -4.212,6.579 -4.212,10.935c0,4.41 1.347,8.068 4.043,10.975c2.697,2.907 6.082,4.361 10.156,4.361c5.646,0 9.801,-2.514 12.47,-7.543l-2.654,-1.937c-1.152,2.246 -2.506,3.871 -4.066,4.866m47.423,4.024l0,-3.117l-15.041,0l0,-10.577l13.736,0l0,-3.117l-13.736,0l0,-9.566l14.915,0l0,-3.118l-18.456,0l0,29.495l18.582,0Z" style="fill-rule:nonzero;"/><path d="M416.213,178.924l0,-12.092l9.692,-17.403l-3.835,0l-6.699,12.473l-0.928,2.065c-0.253,-0.676 -0.563,-1.362 -0.927,-2.065l-6.698,-12.473l-3.836,0l9.692,17.403l0,12.092l3.539,0Zm41.334,-30.084c-4.046,0 -7.431,1.426 -10.155,4.276c-2.724,2.853 -4.086,6.538 -4.086,11.062c0,4.522 1.362,8.209 4.086,11.059c2.724,2.853 6.109,4.277 10.155,4.277c4.044,0 7.429,-1.424 10.153,-4.277c2.727,-2.85 4.089,-6.537 4.089,-11.059c0,-4.524 -1.362,-8.209 -4.089,-11.062c-2.724,-2.85 -6.109,-4.276 -10.153,-4.276Zm-10.618,15.338c0,-3.625 1.003,-6.567 3.014,-8.828c2.006,-2.261 4.541,-3.393 7.604,-3.393c3.061,0 5.597,1.132 7.605,3.393c2.008,2.261 3.014,5.203 3.014,8.828c0,3.623 -1.006,6.565 -3.014,8.825c-2.008,2.264 -4.544,3.393 -7.605,3.393c-3.063,0 -5.598,-1.129 -7.604,-3.393c-2.011,-2.26 -3.014,-5.202 -3.014,-8.825Zm73.356,14.746l0,-14.788l-13.905,0l0,2.949l10.366,0c-0.421,2.892 -1.397,5.168 -2.927,6.825c-1.533,1.659 -3.633,2.486 -6.3,2.486c-3.174,0 -5.725,-1.129 -7.647,-3.393c-1.926,-2.26 -2.887,-5.202 -2.887,-8.825c0,-3.541 1.052,-6.461 3.16,-8.766c2.107,-2.303 4.635,-3.455 7.585,-3.455c2.077,0 3.897,0.463 5.455,1.392c1.56,0.926 2.957,2.456 4.192,4.591l2.697,-1.936c-1.151,-2.219 -2.788,-3.967 -4.908,-5.248c-2.122,-1.277 -4.586,-1.916 -7.394,-1.916c-3.962,0 -7.352,1.468 -10.175,4.402c-2.823,2.937 -4.235,6.58 -4.235,10.936c0,4.437 1.305,8.102 3.918,10.997c2.612,2.892 5.982,4.339 10.113,4.339c2.219,0 4.128,-0.513 5.73,-1.538c1.6,-1.025 2.835,-2.407 3.707,-4.151l1.013,5.099l2.442,0Zm23.723,0l3.412,-8.721l13.062,0l3.413,8.721l3.623,0l-11.713,-29.495l-3.707,0l-11.713,29.495l3.623,0Zm9.942,-25.575c0.198,0.617 0.493,1.431 0.886,2.444l4.465,11.46l-10.742,0l4.507,-11.46l0.884,-2.444Z" style="fill-rule:nonzero;"/></g></svg>